<?xml version="1.0" encoding="iso-8859-1"?>
<!-- Uploaded to: SVG Repo, www.svgrepo.com, Generator: SVG Repo Mixer Tools -->
<svg fill="#000000" height="800px" width="800px" version="1.1" id="Layer_1" xmlns="http://www.w3.org/2000/svg" xmlns:xlink="http://www.w3.org/1999/xlink" 
	 viewBox="0 0 330.001 330.001" xml:space="preserve">
<path id="XMLID_517_" d="M298.684,128.855C296.264,123.467,290.908,120,285,120h-90.788l25.34-101.362
	c1.676-6.7-1.441-13.678-7.548-16.903c-6.105-3.224-13.627-1.863-18.215,3.299l-160,180c-3.924,4.414-4.893,10.722-2.473,16.11
	C33.737,206.534,39.094,210,45,210h90.789l-25.341,101.362c-1.675,6.7,1.441,13.678,7.548,16.903
	c2.216,1.17,4.617,1.736,6.998,1.736c4.18,0,8.294-1.746,11.217-5.035l160-180C300.136,140.551,301.104,134.244,298.684,128.855z
	 M154.366,259.387l15.187-60.748c1.121-4.482,0.114-9.229-2.729-12.869C163.981,182.128,159.62,180,155,180H78.403l97.232-109.386
	l-15.187,60.748c-1.12,4.481-0.113,9.229,2.729,12.869C166.02,147.873,170.381,150,175,150h76.598L154.366,259.387z"/>
</svg>